<svg preserveAspectRatio="none" overflow="visible" style="display: block;" width="198" height="112" viewBox="0 0 198 112" fill="none" xmlns="http://www.w3.org/2000/svg">
<path id="Vector" d="M150.36 31.3256C124.04 31.3256 102.703 49.3636 102.703 71.6544C102.703 93.9285 124.04 112 150.36 112C176.695 112 198 93.9285 198 71.6544C198 49.3636 176.695 31.3256 150.36 31.3256ZM163.461 71.5547C163.461 71.5547 163.427 82.4103 163.427 86.7805C163.427 98.2316 156.653 102.947 150.094 102.947C143.551 102.947 136.726 98.2316 136.726 86.7805C136.726 82.4103 136.742 71.2743 136.742 71.2743C136.742 71.2743 136.761 60.6665 136.761 56.314C136.761 44.8956 143.619 40.2123 150.095 40.2123C156.605 40.2123 163.428 44.8956 163.428 56.314C163.428 60.6656 163.413 68.7258 163.462 71.5883V71.5557L163.461 71.5547ZM60.1272 71.7868V58.9287C60.1272 47.8084 52.4228 44.9953 47.3579 44.9953C42.1602 44.9953 34.5717 47.8084 34.5717 58.9287V84.5125C34.5717 95.6495 42.1602 98.513 47.3579 98.513C52.4219 98.513 60.1272 95.6495 60.1272 84.5125V71.7868ZM59.9113 0H92.0753V108.061H59.8448C59.8448 108.061 59.829 104.57 59.829 103.924C47.3579 111.702 33.2767 111.702 22.2849 106.638C19.3452 105.248 0 95.9971 0 70.9761C0 52.0118 17.9334 31.293 41.4468 33.3616C49.1849 34.04 54.6808 36.8531 59.9122 39.7986L59.9113 0Z" fill="#DADADA" fill-opacity="0.3"/>
</svg>
